<?xml version="1.0" encoding="us-ascii" standalone="no"?><svg xmlns="http://www.w3.org/2000/svg" xmlns:xlink="http://www.w3.org/1999/xlink" contentStyleType="text/css" height="589px" preserveAspectRatio="none" style="width:654px;height:589px;background:#FFFFFF;" version="1.1" viewBox="0 0 654 589" width="654px" zoomAndPan="magnify"><defs/><g><!--class Order--><g id="elem_Order"><rect codeLine="1" fill="#F1F1F1" height="113.1875" id="Order" rx="2.5" ry="2.5" style="stroke:#181818;stroke-width:0.5;" width="142" x="359" y="237.93"/><ellipse cx="406.25" cy="253.93" fill="#ADD1B2" rx="11" ry="11" style="stroke:#181818;stroke-width:1.0;"/><path d="M410.3594,259.93 L402.6406,259.93 L402.6406,247.5394 L410.3594,247.5394 L410.3594,249.6956 L405.0938,249.6956 L405.0938,252.3675 L409.8594,252.3675 L409.8594,254.5237 L405.0938,254.5237 L405.0938,257.7737 L410.3594,257.7737 L410.3594,259.93 Z " fill="#000000"/><text fill="#000000" font-family="sans-serif" font-size="14" lengthAdjust="spacing" textLength="39" x="426.75" y="258.7767">Order</text><line style="stroke:#181818;stroke-width:0.5;" x1="360" x2="500" y1="269.93" y2="269.93"/><ellipse cx="370" cy="283.5784" fill="#000000" rx="3" ry="3" style="stroke:#000000;stroke-width:1.0;"/><text fill="#000000" font-family="sans-serif" font-size="14" lengthAdjust="spacing" textLength="74" x="379" y="286.9251">id : Integer</text><line style="stroke:#181818;stroke-width:1.0;" x1="360" x2="500" y1="294.2269" y2="294.2269"/><ellipse cx="370" cy="307.8753" fill="none" rx="3" ry="3" style="stroke:#038048;stroke-width:1.0;"/><text fill="#000000" font-family="sans-serif" font-size="14" lengthAdjust="spacing" textLength="116" x="379" y="311.222">profileId : Integer</text><text fill="#000000" font-family="sans-serif" font-size="14" lengthAdjust="spacing" textLength="116" x="379" y="327.5189">orderDate : Date</text><text fill="#000000" font-family="sans-serif" font-size="14" lengthAdjust="spacing" textLength="98" x="379" y="343.8157">total : Decimal</text></g><!--class OrderItem--><g id="elem_OrderItem"><rect codeLine="9" fill="#F1F1F1" height="129.4844" id="OrderItem" rx="2.5" ry="2.5" style="stroke:#181818;stroke-width:0.5;" width="154" x="259" y="452.57"/><ellipse cx="297.85" cy="468.57" fill="#ADD1B2" rx="11" ry="11" style="stroke:#181818;stroke-width:1.0;"/><path d="M301.9594,474.57 L294.2406,474.57 L294.2406,462.1794 L301.9594,462.1794 L301.9594,464.3356 L296.6938,464.3356 L296.6938,467.0075 L301.4594,467.0075 L301.4594,469.1637 L296.6938,469.1637 L296.6938,472.4137 L301.9594,472.4137 L301.9594,474.57 Z " fill="#000000"/><text fill="#000000" font-family="sans-serif" font-size="14" lengthAdjust="spacing" textLength="69" x="317.15" y="473.4167">OrderItem</text><line style="stroke:#181818;stroke-width:0.5;" x1="260" x2="412" y1="484.57" y2="484.57"/><ellipse cx="270" cy="498.2184" fill="#000000" rx="3" ry="3" style="stroke:#000000;stroke-width:1.0;"/><text fill="#000000" font-family="sans-serif" font-size="14" lengthAdjust="spacing" textLength="74" x="279" y="501.5651">id : Integer</text><line style="stroke:#181818;stroke-width:1.0;" x1="260" x2="412" y1="508.8669" y2="508.8669"/><ellipse cx="270" cy="522.5153" fill="none" rx="3" ry="3" style="stroke:#038048;stroke-width:1.0;"/><text fill="#000000" font-family="sans-serif" font-size="14" lengthAdjust="spacing" textLength="111" x="279" y="525.862">orderId : Integer</text><ellipse cx="270" cy="538.8122" fill="none" rx="3" ry="3" style="stroke:#038048;stroke-width:1.0;"/><text fill="#000000" font-family="sans-serif" font-size="14" lengthAdjust="spacing" textLength="128" x="279" y="542.1589">productId : Integer</text><text fill="#000000" font-family="sans-serif" font-size="14" lengthAdjust="spacing" textLength="117" x="279" y="558.4557">quantity : Integer</text><text fill="#000000" font-family="sans-serif" font-size="14" lengthAdjust="spacing" textLength="102" x="279" y="574.7526">price : Decimal</text></g><!--class Profile--><g id="elem_Profile"><rect codeLine="18" fill="#F1F1F1" height="129.4844" id="Profile" rx="2.5" ry="2.5" style="stroke:#181818;stroke-width:0.5;" width="128" x="366" y="7"/><ellipse cx="405.3" cy="23" fill="#ADD1B2" rx="11" ry="11" style="stroke:#181818;stroke-width:1.0;"/><path d="M409.4094,29 L401.6906,29 L401.6906,16.6094 L409.4094,16.6094 L409.4094,18.7656 L404.1438,18.7656 L404.1438,21.4375 L408.9094,21.4375 L408.9094,23.5938 L404.1438,23.5938 L404.1438,26.8438 L409.4094,26.8438 L409.4094,29 Z " fill="#000000"/><text fill="#000000" font-family="sans-serif" font-size="14" lengthAdjust="spacing" textLength="42" x="424.7" y="27.8467">Profile</text><line style="stroke:#181818;stroke-width:0.5;" x1="367" x2="493" y1="39" y2="39"/><ellipse cx="377" cy="52.6484" fill="#000000" rx="3" ry="3" style="stroke:#000000;stroke-width:1.0;"/><text fill="#000000" font-family="sans-serif" font-size="14" lengthAdjust="spacing" textLength="74" x="386" y="55.9951">id : Integer</text><line style="stroke:#181818;stroke-width:1.0;" x1="367" x2="493" y1="63.2969" y2="63.2969"/><text fill="#000000" font-family="sans-serif" font-size="14" lengthAdjust="spacing" textLength="88" x="372" y="80.292">name: String</text><text fill="#000000" font-family="sans-serif" font-size="14" lengthAdjust="spacing" textLength="94" x="372" y="96.5889">phone: String</text><text fill="#000000" font-family="sans-serif" font-size="14" lengthAdjust="spacing" textLength="85" x="372" y="112.8857">email: String</text><text fill="#000000" font-family="sans-serif" font-size="14" lengthAdjust="spacing" textLength="116" x="372" y="129.1826">password: String</text></g><!--class Category--><g id="elem_Category"><rect codeLine="39" fill="#F1F1F1" height="121.1875" id="Category" rx="2.5" ry="2.5" style="stroke:#181818;stroke-width:0.5;" width="118" x="529" y="11.15"/><ellipse cx="554.8" cy="27.15" fill="#ADD1B2" rx="11" ry="11" style="stroke:#181818;stroke-width:1.0;"/><path d="M558.9094,33.15 L551.1906,33.15 L551.1906,20.7594 L558.9094,20.7594 L558.9094,22.9156 L553.6438,22.9156 L553.6438,25.5875 L558.4094,25.5875 L558.4094,27.7437 L553.6438,27.7437 L553.6438,30.9937 L558.9094,30.9937 L558.9094,33.15 Z " fill="#000000"/><text fill="#000000" font-family="sans-serif" font-size="14" lengthAdjust="spacing" textLength="62" x="571.2" y="31.9967">Category</text><line style="stroke:#181818;stroke-width:0.5;" x1="530" x2="646" y1="43.15" y2="43.15"/><ellipse cx="540" cy="56.7984" fill="#000000" rx="3" ry="3" style="stroke:#000000;stroke-width:1.0;"/><text fill="#000000" font-family="sans-serif" font-size="14" lengthAdjust="spacing" textLength="74" x="549" y="60.1451">id : Integer</text><line style="stroke:#181818;stroke-width:1.0;" x1="530" x2="646" y1="67.4469" y2="67.4469"/><text fill="#000000" font-family="sans-serif" font-size="14" lengthAdjust="spacing" textLength="92" x="549" y="84.442">name : String</text><ellipse cx="540" cy="97.3922" fill="#000000" rx="3" ry="3" style="stroke:#000000;stroke-width:1.0;"/><text fill="#000000" font-family="sans-serif" font-size="14" lengthAdjust="spacing" textLength="74" x="549" y="100.7389">id : Integer</text><line style="stroke:#181818;stroke-width:1.0;" x1="530" x2="646" y1="108.0406" y2="108.0406"/><text fill="#000000" font-family="sans-serif" font-size="14" lengthAdjust="spacing" textLength="88" x="535" y="125.0357">name: String</text></g><!--class Catalog--><g id="elem_Catalog"><rect codeLine="33" fill="#F1F1F1" height="80.5938" id="Catalog" rx="2.5" ry="2.5" style="stroke:#181818;stroke-width:0.5;" width="100" x="107" y="31.45"/><ellipse cx="129.2" cy="47.45" fill="#ADD1B2" rx="11" ry="11" style="stroke:#181818;stroke-width:1.0;"/><path d="M133.3094,53.45 L125.5906,53.45 L125.5906,41.0594 L133.3094,41.0594 L133.3094,43.2156 L128.0438,43.2156 L128.0438,45.8875 L132.8094,45.8875 L132.8094,48.0437 L128.0438,48.0437 L128.0438,51.2937 L133.3094,51.2937 L133.3094,53.45 Z " fill="#000000"/><text fill="#000000" font-family="sans-serif" font-size="14" lengthAdjust="spacing" textLength="52" x="144.8" y="52.2967">Catalog</text><line style="stroke:#181818;stroke-width:0.5;" x1="108" x2="206" y1="63.45" y2="63.45"/><ellipse cx="118" cy="77.0984" fill="#000000" rx="3" ry="3" style="stroke:#000000;stroke-width:1.0;"/><text fill="#000000" font-family="sans-serif" font-size="14" lengthAdjust="spacing" textLength="74" x="127" y="80.4451">id : Integer</text><line style="stroke:#181818;stroke-width:1.0;" x1="108" x2="206" y1="87.7469" y2="87.7469"/><text fill="#000000" font-family="sans-serif" font-size="14" lengthAdjust="spacing" textLength="88" x="113" y="104.742">name: String</text></g><!--class Filter--><g id="elem_Filter"><rect codeLine="45" fill="#F1F1F1" height="96.8906" id="Filter" rx="2.5" ry="2.5" style="stroke:#181818;stroke-width:0.5;" width="150" x="7" y="246.08"/><ellipse cx="61.25" cy="262.08" fill="#ADD1B2" rx="11" ry="11" style="stroke:#181818;stroke-width:1.0;"/><path d="M65.3594,268.08 L57.6406,268.08 L57.6406,255.6894 L65.3594,255.6894 L65.3594,257.8456 L60.0938,257.8456 L60.0938,260.5175 L64.8594,260.5175 L64.8594,262.6737 L60.0938,262.6737 L60.0938,265.9237 L65.3594,265.9237 L65.3594,268.08 Z " fill="#000000"/><text fill="#000000" font-family="sans-serif" font-size="14" lengthAdjust="spacing" textLength="33" x="81.75" y="266.9267">Filter</text><line style="stroke:#181818;stroke-width:0.5;" x1="8" x2="156" y1="278.08" y2="278.08"/><ellipse cx="18" cy="291.7284" fill="#000000" rx="3" ry="3" style="stroke:#000000;stroke-width:1.0;"/><text fill="#000000" font-family="sans-serif" font-size="14" lengthAdjust="spacing" textLength="74" x="27" y="295.0751">id : Integer</text><line style="stroke:#181818;stroke-width:1.0;" x1="8" x2="156" y1="302.3769" y2="302.3769"/><ellipse cx="18" cy="316.0253" fill="none" rx="3" ry="3" style="stroke:#038048;stroke-width:1.0;"/><text fill="#000000" font-family="sans-serif" font-size="14" lengthAdjust="spacing" textLength="124" x="27" y="319.372">catalogId : Integer</text><text fill="#000000" font-family="sans-serif" font-size="14" lengthAdjust="spacing" textLength="92" x="27" y="335.6689">name : String</text></g><!--class Product--><g id="elem_Product"><rect codeLine="52" fill="#F1F1F1" height="162.0781" id="Product" rx="2.5" ry="2.5" style="stroke:#181818;stroke-width:0.5;" width="132" x="192" y="213.49"/><ellipse cx="227.7" cy="229.49" fill="#ADD1B2" rx="11" ry="11" style="stroke:#181818;stroke-width:1.0;"/><path d="M231.8094,235.49 L224.0906,235.49 L224.0906,223.0994 L231.8094,223.0994 L231.8094,225.2556 L226.5438,225.2556 L226.5438,227.9275 L231.3094,227.9275 L231.3094,230.0837 L226.5438,230.0837 L226.5438,233.3337 L231.8094,233.3337 L231.8094,235.49 Z " fill="#000000"/><text fill="#000000" font-family="sans-serif" font-size="14" lengthAdjust="spacing" textLength="54" x="246.3" y="234.3367">Product</text><line style="stroke:#181818;stroke-width:0.5;" x1="193" x2="323" y1="245.49" y2="245.49"/><ellipse cx="203" cy="259.1384" fill="#000000" rx="3" ry="3" style="stroke:#000000;stroke-width:1.0;"/><text fill="#000000" font-family="sans-serif" font-size="14" lengthAdjust="spacing" textLength="74" x="212" y="262.4851">id : Integer</text><line style="stroke:#181818;stroke-width:1.0;" x1="193" x2="323" y1="269.7869" y2="269.7869"/><text fill="#000000" font-family="sans-serif" font-size="14" lengthAdjust="spacing" textLength="92" x="198" y="286.782">name : String</text><text fill="#000000" font-family="sans-serif" font-size="14" lengthAdjust="spacing" textLength="120" x="198" y="303.0789">description : Text</text><text fill="#000000" font-family="sans-serif" font-size="14" lengthAdjust="spacing" textLength="91" x="198" y="319.3757">image: String</text><text fill="#000000" font-family="sans-serif" font-size="14" lengthAdjust="spacing" textLength="109" x="198" y="335.6726">status: Boolean</text><text fill="#000000" font-family="sans-serif" font-size="14" lengthAdjust="spacing" textLength="102" x="198" y="351.9695">price : Decimal</text><text fill="#000000" font-family="sans-serif" font-size="14" lengthAdjust="spacing" textLength="109" x="198" y="368.2664">catalogId : UUID</text></g><!--class ProductFilter--><g id="elem_ProductFilter"><rect codeLine="63" fill="#F1F1F1" height="113.1875" id="ProductFilter" rx="2.5" ry="2.5" style="stroke:#181818;stroke-width:0.5;" width="154" x="57" y="460.71"/><ellipse cx="87.75" cy="476.71" fill="#ADD1B2" rx="11" ry="11" style="stroke:#181818;stroke-width:1.0;"/><path d="M91.8594,482.71 L84.1406,482.71 L84.1406,470.3194 L91.8594,470.3194 L91.8594,472.4756 L86.5938,472.4756 L86.5938,475.1475 L91.3594,475.1475 L91.3594,477.3037 L86.5938,477.3037 L86.5938,480.5537 L91.8594,480.5537 L91.8594,482.71 Z " fill="#000000"/><text fill="#000000" font-family="sans-serif" font-size="14" lengthAdjust="spacing" textLength="87" x="105.25" y="481.5567">ProductFilter</text><line style="stroke:#181818;stroke-width:0.5;" x1="58" x2="210" y1="492.71" y2="492.71"/><ellipse cx="68" cy="506.3584" fill="#000000" rx="3" ry="3" style="stroke:#000000;stroke-width:1.0;"/><text fill="#000000" font-family="sans-serif" font-size="14" lengthAdjust="spacing" textLength="74" x="77" y="509.7051">id : Integer</text><line style="stroke:#181818;stroke-width:1.0;" x1="58" x2="210" y1="517.0069" y2="517.0069"/><ellipse cx="68" cy="530.6553" fill="none" rx="3" ry="3" style="stroke:#038048;stroke-width:1.0;"/><text fill="#000000" font-family="sans-serif" font-size="14" lengthAdjust="spacing" textLength="128" x="77" y="534.002">productId : Integer</text><ellipse cx="68" cy="546.9522" fill="none" rx="3" ry="3" style="stroke:#038048;stroke-width:1.0;"/><text fill="#000000" font-family="sans-serif" font-size="14" lengthAdjust="spacing" textLength="103" x="77" y="550.2989">filterId : Integer</text><text fill="#000000" font-family="sans-serif" font-size="14" lengthAdjust="spacing" textLength="89" x="77" y="566.5957">value : String</text></g><!--link Catalog to Filter--><g id="link_Catalog_Filter"><path codeLine="71" d="M140.9276,120.0452 C128.2376,157.4152 117.5683,188.8061 104.0483,228.6161 " fill="none" id="Catalog-Filter" style="stroke:#181818;stroke-width:1.0;"/><line style="stroke:#181818;stroke-width:1.0;" x1="138.4262" x2="146.0014" y1="114.9714" y2="117.5438"/><line style="stroke:#181818;stroke-width:1.0;" x1="137.4616" x2="145.0368" y1="117.8121" y2="120.3844"/><line style="stroke:#181818;stroke-width:1.0;" x1="140.9276" x2="143.5" y1="120.0452" y2="112.47"/><line style="stroke:#181818;stroke-width:1.0;" x1="100.8326" x2="103.9413" y1="238.0849" y2="247.5894"/><line style="stroke:#181818;stroke-width:1.0;" x1="100.8326" x2="92.5787" y1="238.0849" y2="243.7306"/><line style="stroke:#181818;stroke-width:1.0;" x1="100.8326" x2="98.26" y1="238.0849" y2="245.66"/><ellipse cx="102.762" cy="232.4036" fill="none" rx="4" ry="4" style="stroke:#181818;stroke-width:1.0;"/><text fill="#000000" font-family="sans-serif" font-size="13" lengthAdjust="spacing" textLength="23" x="125" y="179.5569">has</text></g><!--link Catalog to Product--><g id="link_Catalog_Product"><path codeLine="72" d="M178.4988,119.7446 C191.3388,147.8046 198.1599,162.7224 213.8699,197.0524 " fill="none" id="Catalog-Product" style="stroke:#181818;stroke-width:1.0;"/><line style="stroke:#181818;stroke-width:1.0;" x1="173.1971" x2="180.4717" y1="117.7717" y2="114.4429"/><line style="stroke:#181818;stroke-width:1.0;" x1="174.4454" x2="181.72" y1="120.4996" y2="117.1709"/><line style="stroke:#181818;stroke-width:1.0;" x1="178.4988" x2="175.17" y1="119.7446" y2="112.47"/><line style="stroke:#181818;stroke-width:1.0;" x1="218.0311" x2="226.8159" y1="206.1455" y2="210.9233"/><line style="stroke:#181818;stroke-width:1.0;" x1="218.0311" x2="215.9041" y1="206.1455" y2="215.9167"/><line style="stroke:#181818;stroke-width:1.0;" x1="218.0311" x2="221.36" y1="206.1455" y2="213.42"/><ellipse cx="215.5344" cy="200.6896" fill="none" rx="4" ry="4" style="stroke:#181818;stroke-width:1.0;"/><text fill="#000000" font-family="sans-serif" font-size="13" lengthAdjust="spacing" textLength="23" x="209" y="179.5569">has</text></g><!--link Product to ProductFilter--><g id="link_Product_ProductFilter"><path codeLine="73" d="M208.9625,382.8352 C193.2425,410.8252 188.6954,418.9264 174.3154,444.5264 " fill="none" id="Product-ProductFilter" style="stroke:#181818;stroke-width:1.0;"/><line style="stroke:#181818;stroke-width:1.0;" x1="207.4337" x2="214.4089" y1="377.3889" y2="381.3063"/><line style="stroke:#181818;stroke-width:1.0;" x1="205.9646" x2="212.9398" y1="380.0046" y2="383.922"/><line style="stroke:#181818;stroke-width:1.0;" x1="208.9625" x2="212.88" y1="382.8352" y2="375.86"/><line style="stroke:#181818;stroke-width:1.0;" x1="169.4179" x2="170.7312" y1="453.2451" y2="463.1585"/><line style="stroke:#181818;stroke-width:1.0;" x1="169.4179" x2="160.2688" y1="453.2451" y2="457.2815"/><line style="stroke:#181818;stroke-width:1.0;" x1="169.4179" x2="165.5" y1="453.2451" y2="460.22"/><ellipse cx="172.3564" cy="448.0139" fill="none" rx="4" ry="4" style="stroke:#181818;stroke-width:1.0;"/><text fill="#000000" font-family="sans-serif" font-size="13" lengthAdjust="spacing" textLength="23" x="197" y="418.6369">has</text></g><!--link Filter to ProductFilter--><g id="link_Filter_ProductFilter"><path codeLine="74" d="M95.1151,351.2167 C103.2151,385.5867 108.1824,406.6996 116.6824,442.7796 " fill="none" id="Filter-ProductFilter" style="stroke:#181818;stroke-width:1.0;"/><line style="stroke:#181818;stroke-width:1.0;" x1="90.3042" x2="98.0909" y1="348.2409" y2="346.4058"/><line style="stroke:#181818;stroke-width:1.0;" x1="90.9924" x2="98.779" y1="351.1609" y2="349.3258"/><line style="stroke:#181818;stroke-width:1.0;" x1="95.1151" x2="93.28" y1="351.2167" y2="343.43"/><line style="stroke:#181818;stroke-width:1.0;" x1="118.9755" x2="126.6501" y1="452.5132" y2="458.9241"/><line style="stroke:#181818;stroke-width:1.0;" x1="118.9755" x2="114.9699" y1="452.5132" y2="461.6759"/><line style="stroke:#181818;stroke-width:1.0;" x1="118.9755" x2="120.81" y1="452.5132" y2="460.3"/><ellipse cx="117.5997" cy="446.6731" fill="none" rx="4" ry="4" style="stroke:#181818;stroke-width:1.0;"/><text fill="#000000" font-family="sans-serif" font-size="13" lengthAdjust="spacing" textLength="23" x="113" y="418.6369">has</text></g><!--link Order to OrderItem--><g id="link_Order_OrderItem"><path codeLine="75" d="M403.0249,358.8801 C389.9649,389.5401 383.921,403.7485 370.361,435.5985 " fill="none" id="Order-OrderItem" style="stroke:#181818;stroke-width:1.0;"/><line style="stroke:#181818;stroke-width:1.0;" x1="400.9124" x2="408.2725" y1="353.6325" y2="356.7676"/><line style="stroke:#181818;stroke-width:1.0;" x1="399.7367" x2="407.0968" y1="356.3925" y2="359.5276"/><line style="stroke:#181818;stroke-width:1.0;" x1="403.0249" x2="406.16" y1="358.8801" y2="351.52"/><line style="stroke:#181818;stroke-width:1.0;" x1="366.4438" x2="368.8305" y1="444.7993" y2="454.5103"/><line style="stroke:#181818;stroke-width:1.0;" x1="366.4438" x2="357.7895" y1="444.7993" y2="449.8097"/><line style="stroke:#181818;stroke-width:1.0;" x1="366.4438" x2="363.31" y1="444.7993" y2="452.16"/><ellipse cx="368.7941" cy="439.2788" fill="none" rx="4" ry="4" style="stroke:#181818;stroke-width:1.0;"/><text fill="#000000" font-family="sans-serif" font-size="13" lengthAdjust="spacing" textLength="54" x="384" y="418.6369">contains</text></g><!--link Product to OrderItem--><g id="link_Product_OrderItem"><path codeLine="76" d="M287.3896,383.5327 C292.6696,399.0327 295.65,407.54 301,422.57 C304.41,432.14 301.8423,425.3454 305.4923,435.2254 " fill="none" id="Product-OrderItem" style="stroke:#181818;stroke-width:1.0;"/><line style="stroke:#181818;stroke-width:1.0;" x1="282.3135" x2="289.8861" y1="381.0361" y2="378.4565"/><line style="stroke:#181818;stroke-width:1.0;" x1="283.2808" x2="290.8535" y1="383.8759" y2="381.2963"/><line style="stroke:#181818;stroke-width:1.0;" x1="287.3896" x2="284.81" y1="383.5327" y2="375.96"/><line style="stroke:#181818;stroke-width:1.0;" x1="308.9577" x2="317.3582" y1="444.6057" y2="450.0308"/><line style="stroke:#181818;stroke-width:1.0;" x1="308.9577" x2="306.1018" y1="444.6057" y2="454.1892"/><line style="stroke:#181818;stroke-width:1.0;" x1="308.9577" x2="311.73" y1="444.6057" y2="452.11"/><ellipse cx="306.8784" cy="438.9775" fill="none" rx="4" ry="4" style="stroke:#181818;stroke-width:1.0;"/><text fill="#000000" font-family="sans-serif" font-size="13" lengthAdjust="spacing" textLength="68" x="302" y="418.6369">references</text></g><!--link Profile to Order--><g id="link_Profile_Order"><path codeLine="77" d="M430,144.9 C430,176.73 430,188.82 430,219.47 " fill="none" id="Profile-Order" style="stroke:#181818;stroke-width:1.0;"/><line style="stroke:#181818;stroke-width:1.0;" x1="426" x2="434" y1="140.9" y2="140.9"/><line style="stroke:#181818;stroke-width:1.0;" x1="426" x2="434" y1="143.9" y2="143.9"/><line style="stroke:#181818;stroke-width:1.0;" x1="430" x2="430" y1="144.9" y2="136.9"/><line style="stroke:#181818;stroke-width:1.0;" x1="430" x2="436" y1="229.47" y2="237.47"/><line style="stroke:#181818;stroke-width:1.0;" x1="430" x2="424" y1="229.47" y2="237.47"/><line style="stroke:#181818;stroke-width:1.0;" x1="430" x2="430" y1="229.47" y2="237.47"/><ellipse cx="430" cy="223.47" fill="none" rx="4" ry="4" style="stroke:#181818;stroke-width:1.0;"/><text fill="#000000" font-family="sans-serif" font-size="13" lengthAdjust="spacing" textLength="43" x="431" y="179.5569">makes</text></g><!--SRC=[bLFDReCm3Bxp53wluWKuhjKaJgkqzG6iO6Yqa7I9sLQrU_S5KjP06MKNa3__VBQ_c3HBFiApBSZ2AG5u05b01hbcgiXw84tzPmK7QqgfA1ywJPktGIQFjZyFiM5KhKb2rgYIxoIXY2HdgcU9kf8Zcew-Q0IFyFS6G-aOF5WfQBA1RPXXXbvZJHcyi9MwQaljZOvjgb6gs8_EVVg6Vw4hrzflepBsU8SCfbDHcMffc__cdCXyaehlF00HkXefyDSCsw3Nuka12dB2oWDBeptyIb_iGIzW5GlW6Bbn6JmQemZrXDemQ7ItopUtNIsOTlgzhQ3iKaVm1wfck8LUmlCvJSsfNsy6UtHZNx-fuEojeNEGVp5c8i8rNmAkLvU1C9fHwXkQECPIIPQqe2wgkvSuoaVK-4Rk1m00]--></g></svg>