<svg width="184" height="42" viewBox="0 0 184 42" fill="none" xmlns="http://www.w3.org/2000/svg">
<path d="M4.12799 31.1441C4.22399 31.8641 4.52399 32.4961 5.02799 33.0401C5.53199 33.5841 6.19999 34.0041 7.03199 34.3001C7.87199 34.5961 8.83199 34.7441 9.91199 34.7441C10.976 34.7441 11.904 34.6321 12.696 34.4081C13.488 34.1761 14.096 33.8481 14.52 33.4241C14.952 33.0001 15.168 32.5041 15.168 31.9361C15.168 31.4561 15.048 31.0641 14.808 30.7601C14.576 30.4561 14.188 30.2121 13.644 30.0281C13.108 29.8361 12.36 29.6801 11.4 29.5601L7.51199 29.0561C6.04799 28.8641 4.85999 28.5641 3.94799 28.1561C3.04399 27.7481 2.37599 27.2121 1.94399 26.5481C1.51199 25.8761 1.29599 25.0481 1.29599 24.0641C1.29599 22.9761 1.62799 22.0281 2.29199 21.2201C2.95599 20.4041 3.89599 19.7761 5.11199 19.3361C6.33599 18.8881 7.75999 18.6641 9.38399 18.6641C10.984 18.6641 12.412 18.9041 13.668 19.3841C14.932 19.8641 15.932 20.5401 16.668 21.4121C17.404 22.2761 17.808 23.2721 17.88 24.4001H14.664C14.584 23.7681 14.316 23.2161 13.86 22.7441C13.404 22.2721 12.784 21.9081 12 21.6521C11.224 21.3881 10.328 21.2561 9.31199 21.2561C8.33599 21.2561 7.47999 21.3641 6.74399 21.5801C6.01599 21.7961 5.45199 22.1081 5.05199 22.5161C4.65999 22.9241 4.46399 23.4001 4.46399 23.9441C4.46399 24.3841 4.57599 24.7481 4.79999 25.0361C5.02399 25.3161 5.38799 25.5521 5.89199 25.7441C6.40399 25.9281 7.09599 26.0801 7.96799 26.2001L11.904 26.7521C13.544 26.9761 14.824 27.2801 15.744 27.6641C16.672 28.0401 17.336 28.5401 17.736 29.1641C18.136 29.7881 18.336 30.6001 18.336 31.6001C18.336 32.7441 17.984 33.7521 17.28 34.6241C16.576 35.4881 15.584 36.1561 14.304 36.6281C13.024 37.1001 11.544 37.3361 9.86399 37.3361C8.15199 37.3361 6.62799 37.0801 5.29199 36.5681C3.96399 36.0481 2.91599 35.3201 2.14799 34.3841C1.38799 33.4481 0.975987 32.3681 0.911987 31.1441H4.12799ZM23.4656 31.3121C23.7376 32.4401 24.3496 33.3201 25.3016 33.9521C26.2616 34.5761 27.4736 34.8881 28.9376 34.8881C29.9856 34.8881 31.0496 34.7241 32.1296 34.3961C33.2176 34.0601 34.1776 33.6001 35.0096 33.0161V35.2721C34.1696 35.9121 33.1536 36.4161 31.9616 36.7841C30.7776 37.1521 29.5696 37.3361 28.3376 37.3361C26.7616 37.3361 25.3496 37.0361 24.1016 36.4361C22.8616 35.8361 21.8936 34.9961 21.1976 33.9161C20.5016 32.8281 20.1536 31.5841 20.1536 30.1841C20.1536 28.7921 20.4856 27.5601 21.1496 26.4881C21.8136 25.4081 22.7376 24.5721 23.9216 23.9801C25.1056 23.3801 26.4496 23.0801 27.9536 23.0801C29.4496 23.0801 30.7576 23.4201 31.8776 24.1001C33.0056 24.7801 33.8736 25.7441 34.4816 26.9921C35.0896 28.2321 35.3936 29.6721 35.3936 31.3121H23.4656ZM27.8816 25.5281C27.0976 25.5281 26.3936 25.6681 25.7696 25.9481C25.1536 26.2201 24.6416 26.6121 24.2336 27.1241C23.8256 27.6361 23.5536 28.2401 23.4176 28.9361H32.1536C31.9296 27.8561 31.4416 27.0201 30.6896 26.4281C29.9456 25.8281 29.0096 25.5281 27.8816 25.5281ZM40.5047 31.3121C40.7767 32.4401 41.3887 33.3201 42.3407 33.9521C43.3007 34.5761 44.5127 34.8881 45.9767 34.8881C47.0247 34.8881 48.0887 34.7241 49.1687 34.3961C50.2567 34.0601 51.2167 33.6001 52.0487 33.0161V35.2721C51.2087 35.9121 50.1927 36.4161 49.0007 36.7841C47.8167 37.1521 46.6087 37.3361 45.3767 37.3361C43.8007 37.3361 42.3887 37.0361 41.1407 36.4361C39.9007 35.8361 38.9327 34.9961 38.2367 33.9161C37.5407 32.8281 37.1927 31.5841 37.1927 30.1841C37.1927 28.7921 37.5247 27.5601 38.1887 26.4881C38.8527 25.4081 39.7767 24.5721 40.9607 23.9801C42.1447 23.3801 43.4887 23.0801 44.9927 23.0801C46.4887 23.0801 47.7967 23.4201 48.9167 24.1001C50.0447 24.7801 50.9127 25.7441 51.5207 26.9921C52.1287 28.2321 52.4327 29.6721 52.4327 31.3121H40.5047ZM44.9207 25.5281C44.1367 25.5281 43.4327 25.6681 42.8087 25.9481C42.1927 26.2201 41.6807 26.6121 41.2727 27.1241C40.8647 27.6361 40.5927 28.2401 40.4567 28.9361H49.1927C48.9687 27.8561 48.4807 27.0201 47.7287 26.4281C46.9847 25.8281 46.0487 25.5281 44.9207 25.5281ZM71.4398 18.5201L70.2158 30.0161L70.9118 37.0001H67.7198L67.3718 33.5441C66.6678 34.7441 65.7718 35.6761 64.6838 36.3401C63.5958 37.0041 62.3918 37.3361 61.0718 37.3361C59.7598 37.3361 58.5878 37.0401 57.5558 36.4481C56.5238 35.8481 55.7198 35.0081 55.1438 33.9281C54.5678 32.8481 54.2798 31.6081 54.2798 30.2081C54.2798 28.8081 54.5678 27.5681 55.1438 26.4881C55.7198 25.4081 56.5238 24.5721 57.5558 23.9801C58.5878 23.3801 59.7598 23.0801 61.0718 23.0801C62.3998 23.0801 63.6038 23.4121 64.6838 24.0761C65.7718 24.7321 66.6678 25.6601 67.3718 26.8601L68.2238 18.5201H71.4398ZM61.8158 34.8401C62.6558 34.8401 63.4438 34.6481 64.1798 34.2641C64.9238 33.8721 65.5798 33.3281 66.1478 32.6321C66.7238 31.9361 67.1838 31.1281 67.5278 30.2081C67.1838 29.2961 66.7238 28.4921 66.1478 27.7961C65.5798 27.1001 64.9238 26.5561 64.1798 26.1641C63.4438 25.7721 62.6558 25.5761 61.8158 25.5761C60.9758 25.5761 60.2238 25.7761 59.5598 26.1761C58.8958 26.5681 58.3758 27.1161 57.9998 27.8201C57.6318 28.5161 57.4478 29.3121 57.4478 30.2081C57.4478 31.1041 57.6318 31.9041 57.9998 32.6081C58.3758 33.3121 58.8958 33.8601 59.5598 34.2521C60.2238 34.6441 60.9758 34.8401 61.8158 34.8401ZM75.5698 23.9441C75.5698 22.7761 75.7858 21.7641 76.2178 20.9081C76.6578 20.0441 77.3258 19.3761 78.2218 18.9041C79.1258 18.4241 80.2578 18.1841 81.6178 18.1841C82.2098 18.1841 82.7498 18.2361 83.2378 18.3401C83.7258 18.4441 84.2178 18.5921 84.7138 18.7841V21.2321C84.2978 21.0161 83.8658 20.8601 83.4178 20.7641C82.9698 20.6601 82.4818 20.6081 81.9538 20.6081C80.8258 20.6081 79.9978 20.8401 79.4698 21.3041C78.9498 21.7601 78.6898 22.5121 78.6898 23.5601V24.3521H84.6418V26.7521H78.6898V37.0001H75.5698V26.7521H72.6658V24.3521H75.5698V23.9441ZM86.9938 37.0001V18.5201H90.1138V37.0001H86.9938ZM100.949 37.3361C99.3173 37.3361 97.8733 37.0401 96.6173 36.4481C95.3693 35.8481 94.3973 35.0081 93.7013 33.9281C93.0133 32.8481 92.6693 31.6081 92.6693 30.2081C92.6693 28.8081 93.0133 27.5681 93.7013 26.4881C94.3973 25.4081 95.3693 24.5721 96.6173 23.9801C97.8733 23.3801 99.3173 23.0801 100.949 23.0801C102.581 23.0801 104.021 23.3801 105.269 23.9801C106.525 24.5721 107.497 25.4081 108.185 26.4881C108.881 27.5681 109.229 28.8081 109.229 30.2081C109.229 31.6081 108.881 32.8481 108.185 33.9281C107.497 35.0081 106.525 35.8481 105.269 36.4481C104.021 37.0401 102.581 37.3361 100.949 37.3361ZM100.949 34.8881C101.989 34.8881 102.893 34.7001 103.661 34.3241C104.429 33.9401 105.021 33.3961 105.437 32.6921C105.853 31.9881 106.061 31.1601 106.061 30.2081C106.061 29.2641 105.853 28.4401 105.437 27.7361C105.021 27.0321 104.429 26.4881 103.661 26.1041C102.893 25.7201 101.989 25.5281 100.949 25.5281C99.9093 25.5281 99.0053 25.7201 98.2373 26.1041C97.4693 26.4881 96.8773 27.0321 96.4613 27.7361C96.0453 28.4401 95.8373 29.2641 95.8373 30.2081C95.8373 31.1601 96.0453 31.9881 96.4613 32.6921C96.8773 33.3961 97.4693 33.9401 98.2373 34.3241C99.0053 34.7001 99.9093 34.8881 100.949 34.8881ZM128.387 33.9641L132.515 23.4161H135.635L130.163 37.0001H126.971L122.771 26.3681L118.475 37.0001H115.283L109.835 23.4161H113.003L117.119 33.8921L121.235 23.4161H124.355L128.387 33.9641Z" fill="white"/>
<path d="M180.5 12.25V16.625C180.5 18.1188 180.206 19.5979 179.634 20.978C179.062 22.3581 178.225 23.6121 177.168 24.6683C176.112 25.7246 174.858 26.5625 173.478 27.1341C172.098 27.7058 170.619 28 169.125 28H164.75V36.75H161.25V24.5L161.283 22.75C161.504 19.893 162.794 17.2245 164.897 15.2779C167 13.3312 169.76 12.2499 172.625 12.25H180.5ZM152.5 5.25C155.071 5.25019 157.578 6.05908 159.664 7.56218C161.75 9.06528 163.311 11.1865 164.125 13.6255C162.786 14.7603 161.689 16.1529 160.899 17.7205C160.109 19.288 159.643 20.9985 159.528 22.75H157.75C154.501 22.75 151.385 21.4594 149.088 19.1621C146.791 16.8647 145.5 13.7489 145.5 10.5V5.25H152.5Z" fill="white"/>
</svg>
